<?xml version="1.0"?>
<svg xmlns="http://www.w3.org/2000/svg" xmlns:xlink="http://www.w3.org/1999/xlink" xmlns:svgjs="http://svgjs.com/svgjs" version="1.1" width="512" height="512" x="0" y="0" viewBox="0 0 512 511" style="enable-background:new 0 0 512 512" xml:space="preserve"><g><path xmlns="http://www.w3.org/2000/svg" d="m388.355469 24.003906h-20.003907c-68.175781 0-123.644531 55.46875-123.644531 123.644532v164.382812c0 9.476562 7.710938 17.183594 17.1875 17.183594h46.246094v3.351562c0 .113282.007813.226563.011719.34375-.003906.058594-.011719.113282-.011719.171875 0 .175781.015625.351563.027344.523438.558593 25.660156 21.589843 46.363281 47.378906 46.363281h44.859375c25.792969 0 46.824219-20.703125 47.378906-46.363281.015625-.171875.027344-.347657.027344-.523438 0-.058593-.007812-.113281-.007812-.171875 0-.117187.007812-.230468.007812-.34375v-3.351562h47.003906c9.472656 0 17.183594-7.707032 17.183594-17.183594v-164.382812c0-68.175782-55.464844-123.644532-123.644531-123.644532zm-20.003907 14.972656h20.003907c59.921875 0 108.675781 48.75 108.675781 108.671876v35.960937c-2.835938-10.261719-9.414062-18.039063-17.722656-20.75-17.921875-39.847656-57.617188-65.558594-101.332032-65.558594-43.714843 0-83.410156 25.710938-101.332031 65.558594-7.648437 2.496094-13.820312 9.289063-16.96875 18.351563v-33.5625c0-59.921876 48.753907-108.671876 108.675781-108.671876zm64.492188 286.621094h-109.734375v-10.777344h83.550781c4.136719 0 7.488282-3.347656 7.488282-7.484374 0-4.132813-3.351563-7.484376-7.488282-7.484376h-83.550781v-18.039062c11.335937 5.582031 24.035156 8.695312 37.324219 8.695312h35.085937c13.289063 0 25.988281-3.113281 37.324219-8.695312zm-37.320312-50.058594h-35.089844c-33.253906 0-62.027344-23.648437-68.417969-56.230468-.75-3.816406-4.296875-6.425782-8.164063-6-.265624.03125-.476562.042968-.640624.042968-5.125 0-10.835938-7.507812-10.835938-18.28125 0-10.777343 5.710938-18.285156 10.835938-18.285156 4.136718 0 7.484374-3.351562 7.484374-7.484375 0-.339843-.03125-.671875-.074218-1 15.660156-34.078125 49.789062-56.03125 87.355468-56.03125 37.566407 0 71.699219 21.953125 87.355469 56.03125-.046875.328125-.074219.660157-.074219 1 0 4.132813 3.351563 7.484375 7.484376 7.484375 5.125 0 10.835937 7.507813 10.835937 18.285156 0 10.773438-5.710937 18.28125-10.835937 18.28125-.164063 0-.371094-.011718-.636719-.042968-3.875-.429688-7.417969 2.183594-8.167969 6-6.390625 32.582031-35.164062 56.230468-68.414062 56.230468zm-133.632813 38.707032c-1.21875 0-2.210937-.996094-2.210937-2.214844v-103.101562c3.414062 9.835937 10.394531 16.992187 18.953124 18.890624 4.839844 18.042969 15.425782 33.5 29.507813 44.558594v41.867188zm138.515625 50.753906h-44.859375c-15.125 0-27.859375-10.40625-31.433594-24.433594h107.730469c-3.574219 14.03125-16.3125 24.433594-31.4375 24.433594zm94.410156-50.753906h-47.003906v-41.867188c14.082031-11.058594 24.667969-26.515625 29.507812-44.558594 9.246094-2.050781 16.652344-10.234374 19.707032-21.300781v105.511719c.003906 1.222656-.992188 2.214844-2.210938 2.214844zm0 0" fill="#ffffff" data-original="#000000" style=""/><path xmlns="http://www.w3.org/2000/svg" d="m222.820312 163.617188v-128.683594c0-.40625-.03125-.804688-.09375-1.191406-1.347656-18.707032-16.902343-33.242188-35.761718-33.242188-8.144532 0-15.882813 2.71875-22.132813 7.640625-6.25-4.921875-13.984375-7.640625-22.128906-7.640625s-15.882813 2.71875-22.132813 7.640625c-6.25-4.921875-13.984374-7.640625-22.128906-7.640625-8.144531 0-15.882812 2.71875-22.132812 7.640625-6.25-4.921875-13.984375-7.640625-22.128906-7.640625-18.859376 0-34.410157 14.53125-35.761719 33.230469-.0625.390625-.097657.792969-.097657 1.203125v128.246094c-10.710937 4.042968-18.320312 16.609374-18.320312 31.886718 0 16.628906 9.011719 30.046875 21.226562 32.753906 4.839844 18.042969 15.425782 33.5 29.507813 44.558594v21.03125c-5.082031 4.089844-8.042969 10.183594-8.042969 16.878906v37.042969c0 7.859375 4.066406 14.898438 10.871094 18.828125 3.40625 1.964844 7.136719 2.949219 10.871094 2.949219 1.074218 0 2.148437-.089844 3.214844-.253906 8.527343 7.191406 19.207031 11.117187 30.492187 11.117187h34.941406c4.136719 0 7.484375-3.351562 7.484375-7.484375 0-4.136719-3.347656-7.484375-7.484375-7.484375h-34.941406c-5.203125 0-10.214844-1.226562-14.71875-3.527344l19.253906-11.117187c4.875 4 11.109375 6.40625 17.894531 6.40625 6.785157 0 13.019532-2.40625 17.898438-6.40625l27.367188 15.800781c3.402343 1.964844 7.136718 2.949219 10.871093 2.949219s7.46875-.984375 10.871094-2.949219c6.804687-3.929687 10.871094-10.96875 10.871094-18.828125v-37.042969c0-6.695312-2.960938-12.789062-8.042969-16.878906v-21.03125c14.15625-11.117187 24.78125-26.679687 29.585938-44.839844 11.636718-3.261718 20.101562-16.359374 20.101562-32.472656 0-14.699218-7.066406-26.980468-17.273438-31.449218zm-165.15625 183.714843v-37.042969c0-3.527343 2.367188-5.277343 3.386719-5.863281 1.015625-.589843 3.714844-1.765625 6.769531 0l25.992188 15.003907c-.96875 2.851562-1.503906 5.898437-1.503906 9.074218 0 3.363282.59375 6.59375 1.675781 9.585938l-26.164063 15.105468c-3.054687 1.765626-5.753906.585938-6.769531 0-1.019531-.585937-3.386719-2.335937-3.386719-5.863281zm62.90625-5.535156c-7.328124 0-13.289062-5.964844-13.289062-13.292969 0-7.332031 5.960938-13.292968 13.289062-13.292968 7.332032 0 13.292969 5.964843 13.292969 13.292968s-5.960937 13.292969-13.292969 13.292969zm62.910157 5.535156c0 3.527344-2.371094 5.277344-3.386719 5.863281-1.019531.589844-3.714844 1.765626-6.773438 0l-26.164062-15.105468c1.085938-2.996094 1.679688-6.222656 1.679688-9.585938 0-3.175781-.535157-6.226562-1.503907-9.074218l25.988281-15.003907c3.058594-1.765625 5.753907-.589843 6.773438 0 1.015625.585938 3.386719 2.335938 3.386719 5.863281zm-8.042969-58.777343c-3.304688.195312-6.582031 1.164062-9.601562 2.90625l-26.9375 15.550781c-4.9375-4.214844-11.335938-6.773438-18.328126-6.773438-6.988281 0-13.386718 2.558594-18.324218 6.773438l-26.9375-15.550781c-3.019532-1.742188-6.296875-2.710938-9.605469-2.90625v-6.742188c11.335937 5.582031 24.035156 8.695312 37.324219 8.695312h35.085937c13.289063 0 25.984375-3.113281 37.324219-8.695312zm38.925781-75.203126-.265625-.011718c-3.640625-.105469-6.867187 2.441406-7.578125 6.035156-6.414062 32.542969-35.183593 56.164062-68.40625 56.164062h-35.085937c-33.253906 0-62.027344-23.648437-68.417969-56.230468-.75-3.816406-4.296875-6.417969-8.164063-6-.265624.03125-.476562.046875-.640624.046875-5.125 0-10.835938-7.511719-10.835938-18.285157 0-10.773437 5.710938-18.285156 10.835938-18.285156 4.136718 0 7.484374-3.351562 7.484374-7.484375v-25.214843c5.851563-10.839844 14.070313-20.496094 23.875-28.003907 3.285157-2.511719 3.90625-7.210937 1.394532-10.492187-2.515625-3.28125-7.210938-3.90625-10.492188-1.394532-5.359375 4.105469-10.316406 8.753907-14.777344 13.839844v-82.367187c.015626-.121094.023438-.242188.027344-.367188.550782-11.117187 9.714844-19.832031 20.863282-19.832031 6.359374 0 12.300781 2.855469 16.292968 7.828125 1.421875 1.769531 3.566406 2.800781 5.835938 2.800781 2.269531 0 4.417968-1.03125 5.839844-2.800781 3.992187-4.972656 9.929687-7.828125 16.292968-7.828125 6.359375 0 12.300782 2.855469 16.292969 7.828125 1.421875 1.769531 3.570313 2.800781 5.835937 2.800781 2.269532 0 4.417969-1.03125 5.839844-2.800781 3.992188-4.972656 9.933594-7.828125 16.292969-7.828125s12.300781 2.855469 16.292969 7.828125c1.421875 1.769531 3.566406 2.800781 5.839844 2.800781 2.269531 0 4.414062-1.03125 5.835937-2.800781 3.992187-4.972656 9.933594-7.828125 16.292969-7.828125 11.148437 0 20.308594 8.710938 20.859375 19.832031.007812.125.015625.246094.027343.363281v82.289063c-19.140624-21.875-46.902343-34.769531-76.875-34.769531h-20.804687c-9.773437 0-19.445313 1.375-28.742187 4.09375-3.964844 1.160156-6.242188 5.316406-5.082032 9.285156s5.316406 6.242188 9.285156 5.085938c7.929688-2.320313 16.1875-3.496094 24.539063-3.496094h20.804687c32.308594 0 61.597657 17.5625 76.875 45.945312v25.246094c0 3.902344 3 7.152344 6.894532 7.460938 5.011718.398437 10.378906 7.832031 10.378906 18.261718 0 10.722656-5.65625 18.210938-10.761719 18.285156zm0 0" fill="#ffffff" data-original="#000000" style=""/><path xmlns="http://www.w3.org/2000/svg" d="m96.515625 175.011719c0 8.410156-6.816406 15.226562-15.226563 15.226562-8.40625 0-15.222656-6.816406-15.222656-15.226562 0-8.40625 6.816406-15.222657 15.222656-15.222657 8.410157 0 15.226563 6.816407 15.226563 15.222657zm0 0" fill="#ffffff" data-original="#000000" style=""/><path xmlns="http://www.w3.org/2000/svg" d="m175.074219 175.011719c0 8.410156-6.8125 15.226562-15.222657 15.226562-8.40625 0-15.222656-6.816406-15.222656-15.226562 0-8.40625 6.816406-15.222657 15.222656-15.222657 8.410157 0 15.222657 6.816407 15.222657 15.222657zm0 0" fill="#ffffff" data-original="#000000" style=""/><path xmlns="http://www.w3.org/2000/svg" d="m151.585938 204.710938h-62.027344c-3.09375 0-6.054688 1.320312-8.121094 3.625-2.070312 2.308593-3.0625 5.394531-2.726562 8.476562 2.335937 21.375 20.332031 37.496094 41.859374 37.496094 21.53125 0 39.527344-16.121094 41.863282-37.496094.335937-3.078125-.65625-6.167969-2.726563-8.472656-2.066406-2.308594-5.027343-3.628906-8.121093-3.628906zm-31.015626 34.625c-12.320312 0-22.84375-8.183594-26.101562-19.65625h52.203125c-3.257813 11.472656-13.78125 19.65625-26.101563 19.65625zm0 0" fill="#ffffff" data-original="#000000" style=""/><path xmlns="http://www.w3.org/2000/svg" d="m353.921875 175.011719c0 8.410156-6.816406 15.226562-15.226563 15.226562-8.40625 0-15.222656-6.816406-15.222656-15.226562 0-8.40625 6.816406-15.222657 15.222656-15.222657 8.410157 0 15.226563 6.816407 15.226563 15.222657zm0 0" fill="#ffffff" data-original="#000000" style=""/><path xmlns="http://www.w3.org/2000/svg" d="m432.480469 175.011719c0 8.410156-6.816407 15.226562-15.222657 15.226562s-15.222656-6.816406-15.222656-15.226562c0-8.40625 6.816406-15.222657 15.222656-15.222657s15.222657 6.816407 15.222657 15.222657zm0 0" fill="#ffffff" data-original="#000000" style=""/><path xmlns="http://www.w3.org/2000/svg" d="m409.367188 204.710938h-62.027344c-3.09375 0-6.054688 1.320312-8.121094 3.628906-2.070312 2.304687-3.0625 5.394531-2.726562 8.472656 2.335937 21.375 20.332031 37.492188 41.859374 37.492188 21.53125 0 39.527344-16.117188 41.863282-37.492188.335937-3.078125-.65625-6.167969-2.726563-8.472656-2.066406-2.308594-5.027343-3.628906-8.121093-3.628906zm-31.011719 34.625c-12.320313 0-22.84375-8.183594-26.101563-19.65625h52.203125c-3.257812 11.472656-13.78125 19.65625-26.101562 19.65625zm0 0" fill="#ffffff" data-original="#000000" style=""/></g></svg>
